<?xml version="1.0" encoding="utf-8"?>
<!-- Generator: Adobe Illustrator 16.0.0, SVG Export Plug-In . SVG Version: 6.00 Build 0)  -->
<!DOCTYPE svg PUBLIC "-//W3C//DTD SVG 1.1//EN" "http://www.w3.org/Graphics/SVG/1.1/DTD/svg11.dtd">
<svg version="1.1" id="Layer_1" xmlns="http://www.w3.org/2000/svg" xmlns:xlink="http://www.w3.org/1999/xlink" x="0px" y="0px"
	 width="60px" height="60px" viewBox="0 0 60 60" enable-background="new 0 0 60 60" xml:space="preserve">
<g>
	<path fill-rule="evenodd" clip-rule="evenodd" d="M12.212,47.49c4.395-6.139,9.586-11.278,15.884-15.872
		c1.479,3.143,2.86,6.079,4.243,9.015c0.716,1.521,1.431,3.042,2.152,4.561c1.755,3.693,2.138,3.867,6.751,2.893
		c-2.934-6.439-5.842-12.819-8.887-19.501c6.172-4.18,12.637-7.658,20.402-9.774c0.738,2.913,1.959,5.652,2.036,8.423
		c0.255,9.119,0.097,18.25,0.097,27.547c-0.634,0.067-1.242,0.188-1.851,0.189c-7.935,0.004-15.87,0.09-23.802-0.047
		C22.628,54.809,16.992,52.248,12.212,47.49z"/>
	<path fill-rule="evenodd" clip-rule="evenodd" d="M50.829,16.577c-6.79,2.566-13.415,5.072-20.399,7.712
		c-0.64-1.351-1.488-3.116-2.314-4.893c-0.843-1.814-1.671-3.637-2.497-5.459c-1.453-3.212-3.408-3.442-5.726-0.58
		c-3.48,4.301-5.736,9.275-7.25,14.526c-1.261,4.368-2.04,8.874-3.034,13.319c-0.135,0.604-0.284,1.206-0.567,2.404
		c-4.702-8.148-5.229-16.004-1.637-24.064c3.992-8.953,13.585-14.849,23.323-14.53C39.27,5.291,48.688,10.856,50.829,16.577z"/>
	<path fill-rule="evenodd" clip-rule="evenodd" d="M21.474,17.539c1.571,3.335,2.98,6.202,4.242,9.134
		c0.194,0.451-0.093,1.427-0.493,1.767c-3.588,3.042-7.252,5.996-11.25,9.269C15.432,30.592,17.368,23.982,21.474,17.539z"/>
</g>
</svg>
