<?xml version="1.0" encoding="utf-8"?>
<!-- Generator: Adobe Illustrator 16.0.0, SVG Export Plug-In . SVG Version: 6.00 Build 0)  -->
<!DOCTYPE svg PUBLIC "-//W3C//DTD SVG 1.1//EN" "http://www.w3.org/Graphics/SVG/1.1/DTD/svg11.dtd">
<svg version="1.1" id="Layer_1" xmlns="http://www.w3.org/2000/svg" xmlns:xlink="http://www.w3.org/1999/xlink" x="0px" y="0px"
	 width="60px" height="60px" viewBox="0 0 60 60" enable-background="new 0 0 60 60" xml:space="preserve">
<path id="speech-bubble-14-icon" d="M52.416,46.477c1.65-1.99,2.584-4.559,2.584-7.172c0-4.277-2.411-7.889-6-10.166
	c0.508-1.584,0.775-3.228,0.775-4.887c0-10.947-10.637-18.849-22.387-18.849C15.562,5.404,5,13.365,5,24.252
	c0,3.862,1.378,7.654,3.818,10.596c0.103,3.448-1.907,8.396-3.719,11.995c4.854-0.885,11.756-2.842,14.885-4.774
	c1.836,0.451,3.619,0.729,5.341,0.861c2.169,6.141,9.733,10.84,19.532,8.435c2.119,1.309,6.789,2.633,10.074,3.23
	C53.707,52.156,52.346,48.809,52.416,46.477z M19.857,37.529c-4.197,2.451-7.893,3.43-7.893,3.43s1.25-3.369,1.77-7.246
	c-2.561-2.609-4.375-5.256-4.375-9.46c0-7.988,8.089-14.488,18.029-14.488s18.028,6.5,18.028,14.488
	C45.417,32.521,35.912,41.785,19.857,37.529z M49.764,50.084c0,0-2.375-0.629-5.074-2.205c-7.975,2.113-13.431-0.957-15.502-4.912
	c8.545-0.494,15.143-4.855,18.381-10.566c2.375,1.707,3.871,4.188,3.871,6.941c0,2.703-1.166,4.406-2.812,6.084
	C48.96,47.918,49.764,50.084,49.764,50.084z"/>
</svg>
