<?xml version="1.0" encoding="utf-8"?>
<!-- Generator: Adobe Illustrator 16.0.0, SVG Export Plug-In . SVG Version: 6.00 Build 0)  -->
<!DOCTYPE svg PUBLIC "-//W3C//DTD SVG 1.1//EN" "http://www.w3.org/Graphics/SVG/1.1/DTD/svg11.dtd">
<svg version="1.1" id="Layer_1" xmlns="http://www.w3.org/2000/svg" xmlns:xlink="http://www.w3.org/1999/xlink" x="0px" y="0px"
	 width="60px" height="60px" viewBox="0 0 60 60" enable-background="new 0 0 60 60" xml:space="preserve">
<path id="calendar-5-icon" d="M22.9,34.854h-7.148v-7.16H22.9V34.854z M33.702,27.693h-7.147v7.161h7.147V27.693z M44.502,27.693
	h-7.148v7.161h7.148V27.693z M22.9,38.129h-7.148v7.16H22.9V38.129z M33.702,38.129h-7.147v7.16h7.147V38.129z M44.502,38.129
	h-7.148v7.16h7.148V38.129z M47.16,13.264c0,1.213-0.983,2.208-2.208,2.208c-1.226,0-2.209-0.983-2.209-2.208V7.717
	c0-1.213,0.983-2.207,2.209-2.207s2.208,0.982,2.208,2.207V13.264z M17.367,7.705c0-1.213-0.983-2.207-2.209-2.207
	c-1.213,0-2.208,0.982-2.208,2.207v5.547c0,1.213,0.983,2.207,2.208,2.207c1.214,0,2.209-0.982,2.209-2.207V7.705z M49.83,10.934
	v2.257c0,2.683-2.186,4.866-4.867,4.866c-2.681,0-4.865-2.186-4.865-4.866v-2.257H20.037v2.245c0,2.682-2.186,4.866-4.867,4.866
	s-4.867-2.185-4.867-4.866v-2.245H5v43.568h50V10.934H49.83z M50.146,49.646H9.854V22.645h40.291v27.001H50.146L50.146,49.646z"/>
</svg>
