<?xml version="1.0" encoding="utf-8"?>
<!-- Generator: Adobe Illustrator 16.0.0, SVG Export Plug-In . SVG Version: 6.00 Build 0)  -->
<!DOCTYPE svg PUBLIC "-//W3C//DTD SVG 1.1//EN" "http://www.w3.org/Graphics/SVG/1.1/DTD/svg11.dtd">
<svg version="1.1" id="Layer_1" xmlns="http://www.w3.org/2000/svg" xmlns:xlink="http://www.w3.org/1999/xlink" x="0px" y="0px"
	 width="60px" height="60px" viewBox="0 0 60 60" enable-background="new 0 0 60 60" xml:space="preserve">
<path id="script-icon" d="M47.12,41.05c-0.341,0.22,1.226-0.764-17.181,10.835c0.036-1.771-0.57-3.652-1.796-5.229
	c-0.704-0.897-13.953-17.763-16.502-20.979c-5.812-7.306,3.265-12.521,7.014-6.989c1.663,2.463,1.104,6.333-1.322,7.911l2.258,2.813
	l18.964-10.847c2.522,3.082,8.396,10.228,10.325,12.595C51.257,34.073,50.468,38.854,47.12,41.05z M23.169,23.226l17.424-9.961
	c1.093-5.46-4.44-9.938-9.549-7.656l0,0L16.46,13.071C20.985,14.187,23.776,18.616,23.169,23.226z M20.948,43.354
	c-4.792,2.209-5.338,6.895-2.863,9.77c3.639,4.223,11.041,0.68,7.219-4.262C23.86,46.995,22.126,44.835,20.948,43.354z"/>
</svg>
