<?xml version="1.0" encoding="utf-8"?>
<!-- Generator: Adobe Illustrator 16.0.0, SVG Export Plug-In . SVG Version: 6.00 Build 0)  -->
<!DOCTYPE svg PUBLIC "-//W3C//DTD SVG 1.1//EN" "http://www.w3.org/Graphics/SVG/1.1/DTD/svg11.dtd">
<svg version="1.1" id="Layer_1" xmlns="http://www.w3.org/2000/svg" xmlns:xlink="http://www.w3.org/1999/xlink" x="0px" y="0px"
	 width="60px" height="60px" viewBox="0 0 60 60" enable-background="new 0 0 60 60" xml:space="preserve">
<path id="user-14-icon" d="M54.996,42.547h-9.708c0-10.558-5.278-5.533-5.278-14.793c0-3.336,2.186-5.156,5-5.156
	c4.15,0,7.039,3.956,3.106,11.37c-1.286,2.427,1.37,3.009,4.235,3.677C55.215,38.299,54.996,39.805,54.996,42.547z M7.649,37.633
	c2.862-0.654,5.521-1.238,4.235-3.678c-3.933-7.401-1.045-11.369,3.105-11.369c2.803,0,4.986,1.808,4.986,5.156
	c0,9.246-5.277,4.234-5.277,14.793H5.004C5.004,39.805,4.785,38.299,7.649,37.633z M39.234,36.371
	c-3.604-0.826-6.953-1.555-5.327-4.623c4.938-9.319,1.312-14.295-3.907-14.295c-5.314,0-8.857,5.17-3.906,14.295
	c1.674,3.082-1.809,3.811-5.328,4.623c-3.604,0.824-3.324,2.729-3.324,6.176h25.117C42.559,39.102,42.838,37.195,39.234,36.371z"/>
</svg>
