<?xml version="1.0" encoding="utf-8"?>
<!-- Generator: Adobe Illustrator 16.0.0, SVG Export Plug-In . SVG Version: 6.00 Build 0)  -->
<!DOCTYPE svg PUBLIC "-//W3C//DTD SVG 1.1//EN" "http://www.w3.org/Graphics/SVG/1.1/DTD/svg11.dtd">
<svg version="1.1" id="Layer_1" xmlns="http://www.w3.org/2000/svg" xmlns:xlink="http://www.w3.org/1999/xlink" x="0px" y="0px"
	 width="60px" height="60px" viewBox="0 0 60 60" enable-background="new 0 0 60 60" xml:space="preserve">
<g>
	<g id="Captions">
	</g>
	<path d="M30.074,39.449c-0.519,0-1.298-0.883-1.298-0.883l-3.998-4.154c0,0-9.448,6.49-16.043,11.268
		c-0.154,0.104-0.414,0.311-0.521,0.361l21.755-0.104c0.053,0,4.982-0.051,9.762-0.051c3.998,0,11.836,0.051,11.836,0.051
		S36.513,34.361,36.356,34.256c-0.209-0.154-0.521-0.361-0.521-0.361l-4.413,4.725C31.425,38.67,30.75,39.449,30.074,39.449z"/>
	<path d="M6.452,45.316c0.26-0.365,0.777-0.779,1.402-1.248c3.115-2.232,13.029-9.396,15.887-11.162L6.297,14.737
		c-0.778,0.83-1.298,1.973-1.298,3.219v23.986C4.999,43.291,5.569,44.484,6.452,45.316z"/>
	<path d="M53.853,14.84L36.826,32.441c0.104,0.104,0.207,0.154,0.36,0.26c0.467,0.363,12.307,8.879,16.043,12.461l0.262,0.258
		c0.935-0.83,1.506-2.076,1.506-3.426V17.957C55.047,16.762,54.579,15.671,53.853,14.84z"/>
	<polygon points="51.567,13.958 8.528,13.958 30.127,36.803 	"/>
</g>
</svg>
