<?xml version="1.0" encoding="utf-8"?>
<!-- Generator: Adobe Illustrator 16.0.0, SVG Export Plug-In . SVG Version: 6.00 Build 0)  -->
<!DOCTYPE svg PUBLIC "-//W3C//DTD SVG 1.1//EN" "http://www.w3.org/Graphics/SVG/1.1/DTD/svg11.dtd">
<svg version="1.1" id="Layer_1" xmlns="http://www.w3.org/2000/svg" xmlns:xlink="http://www.w3.org/1999/xlink" x="0px" y="0px"
	 width="60px" height="60px" viewBox="0 0 60 60" enable-background="new 0 0 60 60" xml:space="preserve">
<g>
	<path id="github-icon" d="M30,5.617c-13.811,0-25,11.189-25,25c0,11.043,7.16,20.412,17.1,23.725c1.25,0.23,1.65-0.545,1.65-1.201
		v-4.66c-6.954,1.521-8.398-2.946-8.398-2.946c-1.141-2.89-2.778-3.664-2.778-3.664c-2.271-1.556,0.17-1.521,0.17-1.521
		c2.512,0.185,3.835,2.572,3.835,2.572c2.232,3.824,5.85,2.719,7.27,2.076c0.219-1.613,0.875-2.719,1.59-3.338
		c-5.559-0.631-11.383-2.779-11.383-12.354c0-2.73,0.971-4.964,2.572-6.712c-0.254-0.631-1.116-3.18,0.243-6.614
		c0,0,2.099-0.666,6.881,2.562c1.99-0.558,4.138-0.837,6.263-0.837c2.124,0.012,4.271,0.292,6.262,0.837
		c4.77-3.24,6.869-2.562,6.869-2.562c1.355,3.447,0.51,5.983,0.24,6.614c1.604,1.748,2.572,3.98,2.572,6.712
		c0,9.6-5.852,11.711-11.42,12.33c0.896,0.775,1.711,2.294,1.711,4.636c0,3.352,0,6.045,0,6.856c0,0.668,0.398,1.442,1.663,1.201
		C47.852,51.029,55,41.66,55,30.617C55,16.807,43.811,5.617,30,5.617z"/>
</g>
</svg>
