<?xml version="1.0" encoding="utf-8"?>
<!-- Generator: Adobe Illustrator 16.0.0, SVG Export Plug-In . SVG Version: 6.00 Build 0)  -->
<!DOCTYPE svg PUBLIC "-//W3C//DTD SVG 1.1//EN" "http://www.w3.org/Graphics/SVG/1.1/DTD/svg11.dtd">
<svg version="1.1" id="Layer_1" xmlns="http://www.w3.org/2000/svg" xmlns:xlink="http://www.w3.org/1999/xlink" x="0px" y="0px"
	 width="60px" height="60px" viewBox="0 0 60 60" enable-background="new 0 0 60 60" xml:space="preserve">
<g id="google-plus-icon">
	<path d="M55,16.073h-6.627v6.638h-3.312v-6.626h-6.625V12.76h6.625V6.134h3.312v6.626H55V16.073z M36.262,43.5
		c0,4.964-4.537,11.021-15.946,11.021C11.965,54.508,5,50.916,5,44.859C5,40.188,7.961,34.12,21.784,34.12
		c-2.051-1.677-2.561-4.018-1.299-6.553c-8.096,0-12.245-4.758-12.245-10.801c0-5.91,4.393-11.287,13.362-11.287
		c2.27,0,14.371,0,14.371,0l-3.218,3.375h-3.774c2.66,1.528,4.08,4.66,4.08,8.119c0,3.18-1.748,5.752-4.25,7.682
		c-4.431,3.422-3.302,5.34,1.347,8.726C34.744,36.801,36.262,39.447,36.262,43.5z M27.293,17.188
		c-0.667-5.084-3.981-9.26-7.853-9.369c-3.871-0.108-6.469,3.775-5.801,8.859c0.668,5.086,4.346,8.641,8.217,8.75
		C25.74,25.539,27.96,22.274,27.293,17.188z M31.285,44.01c0-4.187-3.811-8.167-10.217-8.167
		c-5.766-0.061-10.655,3.642-10.655,7.949c0,4.394,4.163,8.033,9.938,8.033C27.73,51.825,31.285,48.393,31.285,44.01z"/>
</g>
</svg>
