<?xml version="1.0" encoding="utf-8"?>
<!-- Generator: Adobe Illustrator 16.0.0, SVG Export Plug-In . SVG Version: 6.00 Build 0)  -->
<!DOCTYPE svg PUBLIC "-//W3C//DTD SVG 1.1//EN" "http://www.w3.org/Graphics/SVG/1.1/DTD/svg11.dtd">
<svg version="1.1" id="Layer_1" xmlns="http://www.w3.org/2000/svg" xmlns:xlink="http://www.w3.org/1999/xlink" x="0px" y="0px"
	 width="60px" height="60px" viewBox="0 0 60 60" enable-background="new 0 0 60 60" xml:space="preserve">
<g>
	<path id="linkedin-icon" d="M17.214,11.152c0,3.398-2.73,6.154-6.104,6.154c-3.375,0-6.104-2.756-6.104-6.154
		C5.006,7.755,7.736,5,11.109,5C14.484,5,17.214,7.755,17.214,11.152z M16.329,21.663H6.013V55h10.315L16.329,21.663L16.329,21.663z
		 M32.82,21.663h-9.891V55h9.891c0,0,0-12.366,0-17.5c0-4.686,2.16-7.477,6.287-7.477c3.799,0,5.619,2.683,5.619,7.477
		s0,17.5,0,17.5h10.268c0,0,0-12.172,0-21.104c0-8.936-5.061-13.24-12.125-13.24c-7.062,0-10.049,5.51-10.049,5.51V21.663
		L32.82,21.663z"/>
</g>
</svg>
