<?xml version="1.0" encoding="utf-8"?>
<!-- Generator: Adobe Illustrator 16.0.0, SVG Export Plug-In . SVG Version: 6.00 Build 0)  -->
<!DOCTYPE svg PUBLIC "-//W3C//DTD SVG 1.1//EN" "http://www.w3.org/Graphics/SVG/1.1/DTD/svg11.dtd">
<svg version="1.1" id="Layer_1" xmlns="http://www.w3.org/2000/svg" xmlns:xlink="http://www.w3.org/1999/xlink" x="0px" y="0px"
	 width="60px" height="60px" viewBox="0 0 60 60" enable-background="new 0 0 60 60" xml:space="preserve">
<g>
	<path fill="#FFFFFF" d="M55,30l-7.427,13.494c-0.732,1.359-2.093,2.195-3.767,2.195h-1.777L50.711,30l-8.682-15.689h1.777
		c1.568,0,3.033,0.94,3.767,2.196L55,30z"/>
	<path fill="#FFFFFF" d="M37.427,37.009v-6.382h-6.381v6.382h-2.511V22.991h2.511v5.544h6.381v-5.544h2.405v14.018H37.427
		L37.427,37.009z M26.13,37.009h-2.511V22.991h2.511V37.009z M21.213,37.009h-2.615l-6.381-10.356h-0.104v10.356H9.812V22.991h2.615
		l6.382,10.356l0,0V22.991h2.301v14.018H21.213L21.213,37.009z M39.832,14.311H7.929C6.255,14.311,5,15.67,5,17.239v25.418
		c0,1.675,1.359,2.93,2.929,2.93h31.903l8.682-15.69L39.832,14.311z"/>
</g>
</svg>
