<?xml version="1.0" encoding="utf-8"?>
<!-- Generator: Adobe Illustrator 16.0.0, SVG Export Plug-In . SVG Version: 6.00 Build 0)  -->
<!DOCTYPE svg PUBLIC "-//W3C//DTD SVG 1.1//EN" "http://www.w3.org/Graphics/SVG/1.1/DTD/svg11.dtd">
<svg version="1.1" id="Layer_1" xmlns="http://www.w3.org/2000/svg" xmlns:xlink="http://www.w3.org/1999/xlink" x="0px" y="0px"
	 width="60px" height="60px" viewBox="0 0 60 60" enable-background="new 0 0 60 60" xml:space="preserve">
<path fill-rule="evenodd" clip-rule="evenodd" d="M52.655,43.279h-7.812v-2.342v-0.783v-3.906v-2.343v-2.342H15.156v2.342v2.343
	v3.906v0.783v2.342H7.344c-1.295,0-2.343-1.049-2.343-2.342V19.063c0-1.295,1.048-2.345,2.343-2.345h45.311
	c1.295,0,2.345,1.05,2.345,2.345v21.875C55,42.23,53.95,43.279,52.655,43.279 M12.032,21.408c-1.294,0-2.344,1.048-2.344,2.342
	c0,1.295,1.05,2.344,2.344,2.344c1.295,0,2.343-1.049,2.343-2.344C14.375,22.456,13.327,21.408,12.032,21.408 M42.499,14.376h-25
	v-2.345V7.345c0-0.323,0.066-0.633,0.187-0.913C18.041,5.591,18.872,5,19.844,5h20.311c0.05,0,0.094,0.011,0.137,0.015
	c0.114,0.006,0.227,0.012,0.335,0.032h0.002c0.261,0.053,0.502,0.16,0.727,0.293l0,0c0,0,0.004,0.002,0.006,0.004
	c0.157,0.095,0.308,0.202,0.438,0.331c0.003,0.001,0.005,0.001,0.007,0.003l0,0c0.102,0.101,0.192,0.211,0.274,0.329
	c0.004,0.006,0.007,0.009,0.011,0.015c0.253,0.371,0.401,0.816,0.406,1.295c0,0.002,0,0.002,0,0.002h0.002V14.376z M42.499,38.595
	v11.716v0.784v1.559c0,1.297-1.049,2.347-2.344,2.347H19.844c-1.295,0-2.345-1.05-2.345-2.347v-1.559v-0.784V38.595v-4.689h25
	V38.595z M37.814,38.595H22.186v2.343h15.628V38.595z M37.814,43.279H22.186v2.347h15.628V43.279z M37.814,47.968H22.186v2.343
	h15.628V47.968z"/>
</svg>
