<?xml version="1.0" encoding="utf-8"?>
<!-- Generator: Adobe Illustrator 16.0.0, SVG Export Plug-In . SVG Version: 6.00 Build 0)  -->
<!DOCTYPE svg PUBLIC "-//W3C//DTD SVG 1.1//EN" "http://www.w3.org/Graphics/SVG/1.1/DTD/svg11.dtd">
<svg version="1.1" id="Layer_1" xmlns="http://www.w3.org/2000/svg" xmlns:xlink="http://www.w3.org/1999/xlink" x="0px" y="0px"
	 width="60px" height="60px" viewBox="0 0 60 60" enable-background="new 0 0 60 60" xml:space="preserve">
<g>
	<path id="rss-icon" d="M18.568,48.229c0,3.738-3.034,6.771-6.772,6.771c-3.737,0-6.771-3.033-6.771-6.771
		c0-3.734,3.033-6.771,6.771-6.771C15.534,41.469,18.568,44.502,18.568,48.229z M5.036,22.04v10.022
		C17.621,32.195,27.84,42.402,27.973,55h10.025C37.863,36.855,23.18,22.172,5.036,22.04z M5.036,15.024
		c10.644,0.049,20.644,4.211,28.168,11.735C40.752,34.309,44.915,44.332,44.951,55h10.023C54.902,27.438,32.584,5.096,5.036,5
		V15.024L5.036,15.024z"/>
</g>
</svg>
