<?xml version="1.0" encoding="utf-8"?>
<!-- Generator: Adobe Illustrator 16.0.0, SVG Export Plug-In . SVG Version: 6.00 Build 0)  -->
<!DOCTYPE svg PUBLIC "-//W3C//DTD SVG 1.1//EN" "http://www.w3.org/Graphics/SVG/1.1/DTD/svg11.dtd">
<svg version="1.1" id="Layer_1" xmlns="http://www.w3.org/2000/svg" xmlns:xlink="http://www.w3.org/1999/xlink" x="0px" y="0px"
	 width="60px" height="60px" viewBox="0 0 60 60" enable-background="new 0 0 60 60" xml:space="preserve">
<g id="Your_Icon">
	<g>
		<path fill="#FFFFFF" d="M5,22.827c0,4.763,1.854,9.239,5.22,12.606c3.368,3.363,7.844,5.222,12.607,5.222
			c2.817-0.003,5.526-0.663,7.976-1.892l14.588,14.588c1.104,1.098,2.539,1.646,3.979,1.646c1.442,0,2.884-0.549,3.981-1.646
			c2.195-2.199,2.195-5.764,0-7.963L38.764,30.801c1.229-2.448,1.891-5.157,1.891-7.975c0.005-4.763-1.854-9.24-5.221-12.605
			c-3.367-3.367-7.844-5.22-12.604-5.22c-4.763,0-9.238,1.855-12.607,5.222C6.855,13.589,5.001,18.065,5,22.827z M15.527,30.126
			c-1.947-1.95-3.021-4.54-3.021-7.298c0-2.757,1.073-5.351,3.021-7.3c1.951-1.948,4.543-3.021,7.301-3.021
			c2.757,0,5.347,1.072,7.297,3.021c1.948,1.949,3.023,4.541,3.021,7.298c0,2.757-1.073,5.348-3.021,7.297
			c-1.95,1.95-4.544,3.025-7.299,3.025C20.07,33.148,17.479,32.075,15.527,30.126z"/>
	</g>
</g>
</svg>
