<?xml version="1.0" encoding="utf-8"?>
<!-- Generator: Adobe Illustrator 16.0.0, SVG Export Plug-In . SVG Version: 6.00 Build 0)  -->
<!DOCTYPE svg PUBLIC "-//W3C//DTD SVG 1.1//EN" "http://www.w3.org/Graphics/SVG/1.1/DTD/svg11.dtd">
<svg version="1.1" id="Layer_2" xmlns="http://www.w3.org/2000/svg" xmlns:xlink="http://www.w3.org/1999/xlink" x="0px" y="0px"
	 width="60px" height="60px" viewBox="0 0 60 60" enable-background="new 0 0 60 60" xml:space="preserve">
<g>
	<path d="M23.35,36.964l4.062,2.707l-11.103,9.207c0,0,2.437,3.158-4.333,4.422l-1.896-2.255c0,0,1.103-5.935,4.333-4.604
		L23.35,36.964z"/>
	<path d="M32.827,20.716L45.284,8.53c0,0,3.887-2.167,7.631,1.625c3.742,3.791,1.305,6.499,1.305,6.499L41.222,30l-1.624-2.244
		l11.102-10.29l-2.437-0.812l-10.29,9.478l-1.354-1.896l10.29-9.749l-1.624-1.896L34.723,22.611L32.827,20.716z"/>
	<path d="M52.414,46.712L27.412,20.445c0,0,2.708-6.229-2.979-12.186c-4.789-5.017-11.644-1.354-11.644-1.354l6.228,6.77
		c0,0,1.083,0.542-2.437,4.062c-3.521,3.52-3.791,1.625-3.791,1.625l-6.77-6.312c0,0-3.791,9.02,3.25,14.165
		c5.766,4.213,9.749,0.812,9.749,0.812L45.013,52.94c0,0,2.708,3.249,5.958,0C54.22,49.69,52.414,46.712,52.414,46.712z M47.94,52.1
		c-1.625,0-2.942-1.317-2.942-2.942s1.317-2.941,2.942-2.941c1.624,0,2.941,1.316,2.941,2.941S49.564,52.1,47.94,52.1z"/>
</g>
</svg>
