<?xml version="1.0" encoding="utf-8"?>
<!-- Generator: Adobe Illustrator 16.0.0, SVG Export Plug-In . SVG Version: 6.00 Build 0)  -->
<!DOCTYPE svg PUBLIC "-//W3C//DTD SVG 1.1//EN" "http://www.w3.org/Graphics/SVG/1.1/DTD/svg11.dtd">
<svg version="1.1" id="Layer_1" xmlns="http://www.w3.org/2000/svg" xmlns:xlink="http://www.w3.org/1999/xlink" x="0px" y="0px"
	 width="60px" height="60px" viewBox="0 0 60 60" enable-background="new 0 0 60 60" xml:space="preserve">
<g>
	<path id="note-21-icon" d="M13.046,50.146V9.855h33.896c0,0,0,22.608,0,26.468c0,7.657-9.45,4.588-9.45,4.588
		s2.897,9.235-4.248,9.235C29.355,50.146,27.415,50.146,13.046,50.146z M51.809,36.734V5H8.191v50h25.122
		C41.59,55,51.809,44.188,51.809,36.734z M29.247,41.675c-2.997,1.056-5.461-0.157-4.964-3.022
		c0.498-2.875,3.338-9.025,3.738-10.191c0.399-1.165-0.377-1.479-1.201-1.007c-0.485,0.278-1.189,0.838-1.81,1.371
		c-0.17-0.339-0.411-0.729-0.581-1.104c0.993-0.996,2.668-2.343,4.646-2.828c2.366-0.582,6.312,0.353,4.61,4.866
		c-1.213,3.218-2.062,5.438-2.607,7.089c-0.534,1.649,0.098,2.004,1.044,1.358c0.739-0.513,1.528-1.188,2.101-1.726
		c0.269,0.438,0.354,0.569,0.617,1.067C33.848,38.568,31.227,40.959,29.247,41.675z M35.448,21.76
		c-1.358,1.152-3.373,1.129-4.49-0.061c-1.128-1.189-0.935-3.083,0.426-4.235c1.359-1.153,3.373-1.129,4.49,0.062
		C37.003,18.714,36.809,20.605,35.448,21.76z"/>
</g>
</svg>
