<?xml version="1.0" encoding="utf-8"?>
<!-- Generator: Adobe Illustrator 16.0.0, SVG Export Plug-In . SVG Version: 6.00 Build 0)  -->
<!DOCTYPE svg PUBLIC "-//W3C//DTD SVG 1.1//EN" "http://www.w3.org/Graphics/SVG/1.1/DTD/svg11.dtd">
<svg version="1.1" id="Layer_1" xmlns="http://www.w3.org/2000/svg" xmlns:xlink="http://www.w3.org/1999/xlink" x="0px" y="0px"
	 width="60px" height="60px" viewBox="0 0 60 60" enable-background="new 0 0 60 60" xml:space="preserve">
<g>
	<path id="twitter-icon" d="M55,14.496c-1.846,0.813-3.812,1.371-5.889,1.614c2.113-1.274,3.752-3.278,4.518-5.684
		c-1.979,1.178-4.178,2.028-6.521,2.489c-1.869-1.991-4.541-3.241-7.488-3.241c-6.633,0-11.5,6.18-9.994,12.604
		c-8.522-0.426-16.088-4.518-21.151-10.721c-2.684,4.612-1.396,10.647,3.183,13.707c-1.688-0.049-3.267-0.51-4.65-1.287
		c-0.108,4.76,3.29,9.203,8.231,10.187c-1.444,0.389-3.022,0.484-4.639,0.17c1.312,4.08,5.101,7.043,9.592,7.127
		c-4.311,3.377-9.75,4.895-15.188,4.25c4.541,2.914,9.933,4.615,15.735,4.615c19.051,0,29.823-16.102,29.178-30.525
		C51.879,18.369,53.629,16.559,55,14.496z"/>
</g>
</svg>
