<?xml version="1.0" encoding="utf-8"?>
<!-- Generator: Adobe Illustrator 16.0.0, SVG Export Plug-In . SVG Version: 6.00 Build 0)  -->
<!DOCTYPE svg PUBLIC "-//W3C//DTD SVG 1.1//EN" "http://www.w3.org/Graphics/SVG/1.1/DTD/svg11.dtd">
<svg version="1.1" id="Layer_1" xmlns="http://www.w3.org/2000/svg" xmlns:xlink="http://www.w3.org/1999/xlink" x="0px" y="0px"
	 width="60px" height="60px" viewBox="0 0 60 60" enable-background="new 0 0 60 60" xml:space="preserve">
<g>
	<path id="laptop-4-icon" d="M55,42.621v1.578c0,1.335-1.092,2.427-2.427,2.427H7.427C6.092,46.626,5,45.534,5,44.199v-1.578h20.279
		c0.17,0.74,0.837,1.189,1.625,1.189h6.189c0.802,0,1.456-0.438,1.628-1.189H55z M47.451,16.65H12.548v20.874h34.916V16.65
		 M50.729,40.801H9.271v-25c0-1.335,1.093-2.427,2.428-2.427h36.613c1.336,0,2.428,1.092,2.428,2.427v25H50.729z"/>
</g>
</svg>
