<?xml version="1.0" encoding="utf-8"?>
<!-- Generator: Adobe Illustrator 16.0.0, SVG Export Plug-In . SVG Version: 6.00 Build 0)  -->
<!DOCTYPE svg PUBLIC "-//W3C//DTD SVG 1.1//EN" "http://www.w3.org/Graphics/SVG/1.1/DTD/svg11.dtd">
<svg version="1.1"
	 id="svg3001" xmlns:svg="http://www.w3.org/2000/svg" xmlns:dc="http://purl.org/dc/elements/1.1/" xmlns:cc="http://creativecommons.org/ns#" xmlns:rdf="http://www.w3.org/1999/02/22-rdf-syntax-ns#" xmlns:sodipodi="http://sodipodi.sourceforge.net/DTD/sodipodi-0.dtd" xmlns:inkscape="http://www.inkscape.org/namespaces/inkscape" sodipodi:docname="magic_font_awesome.svg" inkscape:version="0.48.3.1 r9886"
	 xmlns="http://www.w3.org/2000/svg" xmlns:xlink="http://www.w3.org/1999/xlink" x="0px" y="0px" width="60px" height="60px"
	 viewBox="450 250 60 60" enable-background="new 450 250 60 60" xml:space="preserve">
<sodipodi:namedview  inkscape:cx="896" inkscape:zoom="0.13169643" guidetolerance="10" bordercolor="#666666" inkscape:cy="896" showgrid="false" borderopacity="1" pagecolor="#ffffff" gridtolerance="10" objecttolerance="10" inkscape:pageopacity="0" inkscape:window-width="640" inkscape:pageshadow="2" inkscape:window-height="480" inkscape:window-y="25" inkscape:window-maximized="0" inkscape:window-x="0" inkscape:current-layer="svg3001" id="namedview3007">
	</sodipodi:namedview>
<g id="g3003" transform="matrix(1,0,0,-1,45.559322,1346.1695)">
	<path id="path3005" inkscape:connector-curvature="0" d="M427.187,1076.692l-8.95,8.949l-3.268-3.268l8.949-8.95L427.187,1076.692z
		 M410.815,1083.748l6.047,6.047c0.367,0.367,0.825,0.55,1.375,0.55s1.008-0.183,1.375-0.55l39.279-39.28
		c0.366-0.365,0.55-0.824,0.55-1.374s-0.184-1.008-0.55-1.374l-6.048-6.048c-0.366-0.366-0.824-0.55-1.374-0.55
		s-1.008,0.184-1.375,0.55l-39.279,39.279c-0.367,0.366-0.55,0.825-0.55,1.375S410.448,1083.381,410.815,1083.748z M452.447,1091.17
		l0.916-2.993l2.993-0.917l-2.993-0.916l-0.916-2.994l-0.917,2.994l-2.993,0.916l2.993,0.917L452.447,1091.17z M442.672,1089.215
		l1.833-5.987l5.986-1.833l-5.986-1.833l-1.833-5.987l-1.833,5.987l-5.986,1.833l5.986,1.833L442.672,1089.215z M413.35,1071.622
		l0.916-2.993l2.994-0.917l-2.994-0.917l-0.916-2.993l-0.917,2.993l-2.993,0.917l2.993,0.917L413.35,1071.622z M432.898,1091.17
		l0.917-2.993l2.993-0.917l-2.993-0.916l-0.917-2.994l-0.917,2.994l-2.993,0.916l2.993,0.917L432.898,1091.17z"/>
</g>
</svg>
