<?xml version="1.0" encoding="utf-8"?>
<!-- Generator: Adobe Illustrator 16.0.0, SVG Export Plug-In . SVG Version: 6.00 Build 0)  -->
<!DOCTYPE svg PUBLIC "-//W3C//DTD SVG 1.1//EN" "http://www.w3.org/Graphics/SVG/1.1/DTD/svg11.dtd">
<svg version="1.1" id="Layer_1" xmlns="http://www.w3.org/2000/svg" xmlns:xlink="http://www.w3.org/1999/xlink" x="0px" y="0px"
	 width="60px" height="60px" viewBox="0 0 60 60" enable-background="new 0 0 60 60" xml:space="preserve">
<g>
	<path id="youtube-icon" d="M14.697,5h2.996l2.052,7.719L21.663,5h3.032l-3.471,11.468v7.828H18.24v-7.828L14.697,5z M24.55,20.741
		c0,2.512,1.312,3.81,3.872,3.81c2.123,0,3.799-1.42,3.799-3.81v-6.979c0-2.232-1.662-3.822-3.799-3.822
		c-2.33,0-3.872,1.541-3.872,3.822V20.741L24.55,20.741z M27.269,14.005c0-0.776,0.364-1.358,1.104-1.358
		c0.813,0,1.151,0.558,1.151,1.358v6.626c0,0.777-0.398,1.348-1.104,1.348c-0.729,0-1.152-0.595-1.152-1.348L27.269,14.005
		L27.269,14.005z M39.381,10.061v10.801c-0.326,0.402-1.043,1.068-1.555,1.068c-0.57,0-0.703-0.388-0.703-0.957V10.061h-2.645
		v11.895c0,1.408,0.424,2.536,1.844,2.536c0.801,0,1.918-0.412,3.059-1.772v1.578h2.646V10.061H39.381z M35.498,39.234
		c0.182,0.244,0.268,0.584,0.268,1.045v7.003c0,0.437-0.074,0.739-0.221,0.934c-0.277,0.364-0.873,0.353-1.285,0.134
		c-0.193-0.098-0.389-0.256-0.596-0.474V39.43c0.17-0.183,0.34-0.328,0.521-0.412C34.623,38.799,35.193,38.835,35.498,39.234z
		 M43.98,38.932c-0.938,0-1.129,0.656-1.129,1.59v1.373h2.221v-1.373C45.084,39.6,44.891,38.932,43.98,38.932z M51.662,48.932
		c0,3.353-2.719,6.068-6.066,6.068h-31.19c-3.35,0-6.067-2.719-6.067-6.068V33.605c0-3.353,2.718-6.068,6.067-6.068h31.19
		c3.348,0,6.066,2.719,6.066,6.068V48.932L51.662,48.932z M18.556,34.745h2.938v-2.67h-8.715v2.67h2.938v15.704h2.841V34.745H18.556
		z M28.652,36.904h-2.523v10.291c-0.304,0.39-0.995,1.021-1.48,1.021c-0.533,0-0.668-0.362-0.668-0.909V36.918h-2.522v11.334
		c0,2.756,1.868,2.768,3.228,1.99c0.498-0.291,0.983-0.703,1.444-1.262v1.492h2.524V36.904H28.652z M38.361,40.133
		c0-1.845-0.607-3.396-2.451-3.396c-0.898,0-1.676,0.57-2.246,1.264v-5.91h-2.549v18.373h2.549V49.42
		c0.705,0.873,1.469,1.213,2.393,1.213c1.674,0,2.307-1.299,2.307-2.984v-7.515L38.361,40.133L38.361,40.133z M47.67,40.546
		c0-2.45-1.166-3.991-3.58-3.991c-2.27,0-3.822,1.639-3.822,3.991v6.08c0,2.438,1.229,4.199,3.643,4.199
		c2.656,0,3.771-1.577,3.771-4.199v-1.021h-2.598v0.945c0,1.18-0.061,1.895-1.129,1.895c-1.02,0-1.104-0.872-1.104-1.895V43.99
		h4.816L47.67,40.546L47.67,40.546z"/>
</g>
</svg>
