<svg version="1.1" id="Layer_1" xmlns="http://www.w3.org/2000/svg" xmlns:xlink="http://www.w3.org/1999/xlink" x="0px" y="0px" width="40px" height="30px" viewBox="0 0 499 311" enable-background="new 0 0 499 311" xml:space="preserve">
<rect fill="#005295" width="499" height="311"/>
<g>
	<path fill="#FFFFFF" d="M480.099,157l-68.348,123.562C405.167,292.734,392.289,301,377.479,301h-16.679l79.66-144l-79.66-144
		h16.679c14.809,0,27.688,8.267,34.271,20.438L480.099,157z"/>
	<path fill="#FFFFFF" d="M340.749,13H48.378C33.33,13,21.132,25.198,21.132,40.246v233.508C21.132,288.803,33.33,301,48.378,301
		h292.371l79.66-144L340.749,13z M169.854,221.779h-23.825l-58.661-94.761h-0.542v94.761H65.347V92.905h23.825l58.842,94.941h0.361
		V92.905h21.479V221.779z M214.797,221.779h-22.562V92.905h22.562V221.779z M318.764,221.779v-58.12h-58.661v58.12H237.54V92.905
		h22.562v51.261h58.661V92.905h22.562v128.875H318.764z"/>
</g>
</svg>
